<svg viewBox="135 133 224 154" fill="none" xmlns="http://www.w3.org/2000/svg">
<path fill-rule="evenodd" clip-rule="evenodd" d="M277.947 139C322.586 139 353.427 169.638 353.427 210.015C353.427 249.987 322.586 281.032 277.947 281.032H211.844V250.215C225.697 242.041 234.992 226.965 234.992 209.715C234.992 192.466 225.697 177.389 211.844 169.214V139H277.947ZM281.989 162.719C256.033 162.719 234.992 183.76 234.992 209.715C234.992 235.671 256.033 256.712 281.989 256.712C307.944 256.712 328.984 235.671 328.984 209.715C328.984 183.76 307.944 162.719 281.989 162.719Z" fill="white"/>
<path d="M187.997 162.719C196.702 162.719 204.853 165.089 211.844 169.214V250.215C204.853 254.341 196.702 256.712 187.997 256.712C162.041 256.712 141 235.671 141 209.715C141 183.76 162.041 162.719 187.997 162.719Z" fill="url(#bm_radial)"/>
<defs>
<radialGradient id="bm_radial" cx="0" cy="0" r="1" gradientTransform="matrix(70.5188 81.4019 -81.4013 70.5193 153.188 179.048)" gradientUnits="userSpaceOnUse">
<stop offset="0.130208"/>
<stop offset="0.34951" stop-color="#010978"/>
<stop offset="0.768295" stop-color="#00A3FF"/>
<stop offset="1" stop-color="white"/>
</radialGradient>
</defs>
</svg>
