<svg width="1000" height="1000" viewBox="0 0 1000 1000" fill="none" xmlns="http://www.w3.org/2000/svg">
<rect width="1000" height="1000" fill="black"/>
<path d="M605.905 255.279C759.723 255.279 865.999 360.855 866 499.99C866 637.728 759.724 744.704 605.905 744.704H378.122V638.526C425.81 610.387 457.818 558.507 457.886 499.144C457.987 588.496 530.454 660.9 619.83 660.9C709.269 660.9 781.774 588.395 781.774 498.956C781.774 409.517 709.269 337.012 619.83 337.012C530.455 337.012 457.988 409.414 457.886 498.766C457.817 439.403 425.81 387.521 378.122 359.383V255.279H605.905Z" fill="white"/>
<path d="M295.944 337.012C325.941 337.012 354.032 345.168 378.122 359.383V638.526C354.032 652.741 325.941 660.9 295.944 660.9C206.505 660.9 134 588.395 134 498.956C134 409.517 206.505 337.012 295.944 337.012Z" fill="white"/>
<path d="M295.944 337.012C325.941 337.012 354.032 345.168 378.122 359.383V638.526C354.032 652.741 325.941 660.9 295.944 660.9C206.505 660.9 134 588.395 134 498.956C134 409.517 206.505 337.012 295.944 337.012Z" fill="url(#paint0_radial_29_141)"/>
<defs>
<radialGradient id="paint0_radial_29_141" cx="0" cy="0" r="1" gradientUnits="userSpaceOnUse" gradientTransform="translate(176 393.279) rotate(49.0973) scale(371.119 371.119)">
<stop offset="0.130208"/>
<stop offset="0.34951" stop-color="#010978"/>
<stop offset="0.768295" stop-color="#00A3FF"/>
<stop offset="1" stop-color="white"/>
</radialGradient>
</defs>
</svg>
