<svg width="1000" height="420" viewBox="0 0 1000 420" fill="none" xmlns="http://www.w3.org/2000/svg">
<rect width="1000" height="420" fill="white"/>
<path d="M416.424 239.011C399.349 239.011 387.436 226.065 387.436 210.261C387.436 194.615 399.508 181.511 416.583 181.511C433.658 181.511 445.571 194.456 445.571 210.261C445.571 225.906 433.5 239.011 416.424 239.011ZM416.583 230.036C427.623 230.036 435.326 221.221 435.326 210.261C435.326 199.46 427.464 190.485 416.424 190.485C405.385 190.485 397.681 199.301 397.681 210.261C397.681 221.062 405.544 230.036 416.583 230.036Z" fill="black"/>
<path d="M449.909 250.765V196.124H459.518V203.113C462.616 198.745 466.984 195.25 473.734 195.25C483.662 195.25 493.272 203.113 493.272 217.17C493.272 231.069 483.741 238.931 473.734 238.931C466.825 238.931 462.457 235.437 459.518 231.545V250.765H449.909ZM471.511 230.592C478.103 230.592 483.503 225.43 483.503 217.011C483.503 208.911 478.023 203.589 471.511 203.589C464.998 203.589 459.28 208.99 459.28 217.17C459.28 225.271 464.998 230.592 471.511 230.592Z" fill="black"/>
<path d="M517.568 239.011C505.417 239.011 496.045 230.195 496.045 217.091C496.045 205.098 504.543 195.25 516.536 195.25C529.878 195.25 536.629 205.734 536.629 217.806C536.629 218.441 536.549 220.029 536.47 220.506H505.655C506.688 227.336 511.532 231.148 517.727 231.148C522.413 231.148 525.748 229.401 529.084 226.145L534.723 231.148C530.752 235.913 525.272 239.011 517.568 239.011ZM505.576 214.152H527.098C526.463 207.957 522.81 203.113 516.456 203.113C510.579 203.113 506.449 207.64 505.576 214.152Z" fill="black"/>
<path d="M539.926 238.058V196.124H549.536V202.636C552.236 198.665 556.128 195.25 562.64 195.25C572.091 195.25 577.571 201.604 577.571 211.373V238.058H567.961V214.232C567.961 207.719 564.705 203.986 558.987 203.986C553.427 203.986 549.536 207.878 549.536 214.39V238.058H539.926Z" fill="black"/>
<path d="M583.934 238.058V182.464H604.663C622.135 182.464 634.207 194.456 634.207 210.261C634.207 225.906 622.135 238.058 604.663 238.058H583.934ZM593.703 229.163H604.663C616.337 229.163 623.962 221.3 623.962 210.261C623.962 199.38 616.337 191.359 604.663 191.359H593.703V229.163Z" fill="black"/>
<path d="M657.812 239.011C645.661 239.011 636.29 230.195 636.29 217.091C636.29 205.098 644.788 195.25 656.78 195.25C670.123 195.25 676.873 205.734 676.873 217.806C676.873 218.441 676.794 220.029 676.714 220.506H645.899C646.932 227.336 651.777 231.148 657.971 231.148C662.657 231.148 665.993 229.401 669.328 226.145L674.967 231.148C670.996 235.913 665.516 239.011 657.812 239.011ZM645.82 214.152H667.343C666.707 207.957 663.054 203.113 656.701 203.113C650.824 203.113 646.694 207.64 645.82 214.152Z" fill="black"/>
<path d="M691.417 238.375L674.183 196.124H684.507L695.785 226.939L707.142 196.124H717.228L700.074 238.375H691.417Z" fill="black"/>
<path d="M746.672 239.011C729.596 239.011 717.683 226.065 717.683 210.261C717.683 194.615 729.755 181.511 746.83 181.511C763.906 181.511 775.819 194.456 775.819 210.261C775.819 225.906 763.747 239.011 746.672 239.011ZM746.83 230.036C757.87 230.036 765.573 221.221 765.573 210.261C765.573 199.46 757.711 190.485 746.672 190.485C735.632 190.485 727.928 199.301 727.928 210.261C727.928 221.062 735.791 230.036 746.83 230.036Z" fill="black"/>
<path d="M779.361 250.765V196.124H788.971V203.113C792.069 198.745 796.437 195.25 803.188 195.25C813.115 195.25 822.725 203.113 822.725 217.17C822.725 231.069 813.194 238.931 803.188 238.931C796.278 238.931 791.91 235.437 788.971 231.545V250.765H779.361ZM800.964 230.592C807.556 230.592 812.956 225.43 812.956 217.011C812.956 208.911 807.476 203.589 800.964 203.589C794.451 203.589 788.733 208.99 788.733 217.17C788.733 225.271 794.451 230.592 800.964 230.592Z" fill="black"/>
<path d="M840.588 238.852C834.632 238.852 828.04 236.707 822.798 232.578L827.087 226.065C831.614 229.48 836.538 231.228 840.826 231.228C844.956 231.228 847.339 229.48 847.339 226.542C847.339 223.444 843.288 222.332 838.682 220.982C838.444 220.903 838.205 220.823 837.967 220.744C831.772 218.917 824.863 216.376 824.863 208.196C824.863 200.254 831.455 195.409 839.794 195.409C845.036 195.409 850.754 197.236 855.201 200.174L851.389 207.004C847.339 204.542 843.05 203.033 839.556 203.033C835.823 203.033 833.678 204.781 833.678 207.402C833.678 210.261 837.729 211.531 842.335 213.04C842.573 213.12 842.891 213.199 843.129 213.279C849.245 215.185 856.154 217.964 856.154 225.668C856.154 234.484 849.324 238.852 840.588 238.852Z" fill="black"/>
<path fill-rule="evenodd" clip-rule="evenodd" d="M277.947 139C322.586 139 353.427 169.638 353.427 210.015C353.427 249.987 322.586 281.032 277.947 281.032H211.844V250.215C225.697 242.041 234.992 226.965 234.992 209.715C234.992 192.466 225.697 177.389 211.844 169.214V139H277.947ZM281.989 162.719C256.033 162.719 234.992 183.76 234.992 209.715C234.992 235.671 256.033 256.712 281.989 256.712C307.944 256.712 328.984 235.671 328.984 209.715C328.984 183.76 307.944 162.719 281.989 162.719Z" fill="black"/>
<path d="M187.997 162.719C196.702 162.719 204.853 165.089 211.844 169.214V250.215C204.853 254.341 196.702 256.712 187.997 256.712C162.041 256.712 141 235.671 141 209.715C141 183.76 162.041 162.719 187.997 162.719Z" fill="url(#paint0_radial_29_171)"/>
<path d="M187.997 162.719C196.702 162.719 204.853 165.089 211.844 169.214V250.215C204.853 254.341 196.702 256.712 187.997 256.712C162.041 256.712 141 235.671 141 209.715C141 183.76 162.041 162.719 187.997 162.719Z" fill="url(#paint1_radial_29_171)"/>
<defs>
<radialGradient id="paint0_radial_29_171" cx="0" cy="0" r="1" gradientTransform="matrix(70.5188 81.4019 -81.4013 70.5193 153.188 179.048)" gradientUnits="userSpaceOnUse">
<stop offset="0.130208"/>
<stop offset="0.34951" stop-color="#010978"/>
<stop offset="0.768295" stop-color="#00A3FF"/>
<stop offset="1" stop-color="white"/>
</radialGradient>
<radialGradient id="paint1_radial_29_171" cx="0" cy="0" r="1" gradientTransform="matrix(70.5188 81.4019 -81.4013 70.5193 153.188 179.048)" gradientUnits="userSpaceOnUse">
<stop offset="0.130208"/>
<stop offset="0.34951" stop-color="#010978"/>
<stop offset="0.768295" stop-color="#00A3FF"/>
<stop offset="1" stop-color="white"/>
</radialGradient>
</defs>
</svg>
